<svg width="0" height="0" style="position:absolute" aria-hidden="true" focusable="false"><defs>
<linearGradient id="gw" x1="0" y1="0" x2="0" y2="1"><stop offset="0" stop-color="#E4DED1"/><stop offset=".62" stop-color="#D3CBBB"/><stop offset=".63" stop-color="#C2B9A7"/><stop offset="1" stop-color="#B5AB97"/></linearGradient>
</defs>
<symbol id="p1" viewBox="0 0 120 160" preserveAspectRatio="xMidYMid slice"><rect width="120" height="160" fill="url(#gw)"/><ellipse cx="60" cy="150" rx="27" ry="5.5" fill="none" stroke="rgba(0,0,0,.22)" stroke-width="1.5"/><path d="M46 149 h28 M60 149 v7" stroke="rgba(0,0,0,.3)" stroke-width="2" stroke-linecap="round" fill="none"/><path d="M54 157 L66 157 L60 164 Z" fill="rgba(0,0,0,.42)"/><path d="M41 58 L79 58 L72 112 L48 112 Z" fill="#3A352D"/><path d="M54 108 L52 147" stroke="#3A352D" stroke-width="13" stroke-linecap="round" fill="none"/><path d="M66 108 L68 147" stroke="#3A352D" stroke-width="13" stroke-linecap="round" fill="none"/><path d="M45 62 L37 90 L35 107" stroke="#3A352D" stroke-width="9" stroke-linecap="round" stroke-linejoin="round" fill="none"/><path d="M75 62 L83 90 L85 107" stroke="#3A352D" stroke-width="9" stroke-linecap="round" stroke-linejoin="round" fill="none"/><circle cx="60" cy="33" r="11.5" fill="#3A352D"/><path d="M60 44 L60 52" stroke="#3A352D" stroke-width="9" stroke-linecap="round"/></symbol>
<symbol id="p2" viewBox="0 0 120 160" preserveAspectRatio="xMidYMid slice"><rect width="120" height="160" fill="url(#gw)"/><ellipse cx="60" cy="150" rx="27" ry="5.5" fill="none" stroke="rgba(0,0,0,.22)" stroke-width="1.5"/><path d="M46 149 h28 M60 149 v7" stroke="rgba(0,0,0,.3)" stroke-width="2" stroke-linecap="round" fill="none"/><path d="M54 157 L66 157 L60 164 Z" fill="rgba(0,0,0,.42)"/><path d="M41 58 L79 58 L72 112 L48 112 Z" fill="#3A352D"/><path d="M54 108 L52 147" stroke="#3A352D" stroke-width="13" stroke-linecap="round" fill="none"/><path d="M66 108 L68 147" stroke="#3A352D" stroke-width="13" stroke-linecap="round" fill="none"/><path d="M45 62 L26 72 L34 46" stroke="#3A352D" stroke-width="9" stroke-linecap="round" stroke-linejoin="round" fill="none"/><path d="M75 62 L94 72 L86 46" stroke="#3A352D" stroke-width="9" stroke-linecap="round" stroke-linejoin="round" fill="none"/><circle cx="34" cy="44" r="5" fill="#3A352D"/><circle cx="86" cy="44" r="5" fill="#3A352D"/><circle cx="60" cy="33" r="11.5" fill="#3A352D"/><path d="M60 44 L60 52" stroke="#3A352D" stroke-width="9" stroke-linecap="round"/></symbol>
<symbol id="p3" viewBox="0 0 120 160" preserveAspectRatio="xMidYMid slice"><rect width="120" height="160" fill="url(#gw)"/><ellipse cx="60" cy="150" rx="27" ry="5.5" fill="none" stroke="rgba(0,0,0,.22)" stroke-width="1.5"/><path d="M46 149 h28 M60 149 v7" stroke="rgba(0,0,0,.3)" stroke-width="2" stroke-linecap="round" fill="none"/><path d="M54 157 L66 157 L60 164 Z" fill="rgba(0,0,0,.42)"/><path d="M41 58 L79 58 L72 112 L48 112 Z" fill="#3A352D"/><path d="M54 108 L52 147" stroke="#3A352D" stroke-width="13" stroke-linecap="round" fill="none"/><path d="M66 108 L68 147" stroke="#3A352D" stroke-width="13" stroke-linecap="round" fill="none"/><path d="M45 60 L30 44 L48 33" stroke="#3A352D" stroke-width="9" stroke-linecap="round" stroke-linejoin="round" fill="none"/><path d="M75 60 L90 44 L72 33" stroke="#3A352D" stroke-width="9" stroke-linecap="round" stroke-linejoin="round" fill="none"/><circle cx="60" cy="33" r="11.5" fill="#3A352D"/><path d="M60 44 L60 52" stroke="#3A352D" stroke-width="9" stroke-linecap="round"/></symbol>
<symbol id="p4" viewBox="0 0 120 160" preserveAspectRatio="xMidYMid slice"><rect width="120" height="160" fill="url(#gw)"/><ellipse cx="60" cy="150" rx="27" ry="5.5" fill="none" stroke="rgba(0,0,0,.22)" stroke-width="1.5"/><path d="M46 149 h28 M60 149 v7" stroke="rgba(0,0,0,.3)" stroke-width="2" stroke-linecap="round" fill="none"/><path d="M86 144 L86 156 L94 150 Z" fill="rgba(0,0,0,.42)"/><path d="M51 58 L69 58 L67 112 L49 112 Z" fill="#3A352D"/><path d="M62 108 L64 147" stroke="#6E6558" stroke-width="12" stroke-linecap="round" fill="none"/><path d="M57 108 L55 147" stroke="#3A352D" stroke-width="13" stroke-linecap="round" fill="none"/><path d="M58 63 L84 71 L102 71" stroke="#6E6558" stroke-width="8" stroke-linecap="round" stroke-linejoin="round" fill="none"/><path d="M58 62 L86 66 L104 66" stroke="#3A352D" stroke-width="9" stroke-linecap="round" stroke-linejoin="round" fill="none"/><circle cx="59" cy="33" r="11.5" fill="#3A352D"/><path d="M59 44 L59 52" stroke="#3A352D" stroke-width="9" stroke-linecap="round"/></symbol>
<symbol id="p5" viewBox="0 0 120 160" preserveAspectRatio="xMidYMid slice"><rect width="120" height="160" fill="url(#gw)"/><ellipse cx="60" cy="150" rx="27" ry="5.5" fill="none" stroke="rgba(0,0,0,.22)" stroke-width="1.5"/><path d="M46 149 h28 M60 149 v7" stroke="rgba(0,0,0,.3)" stroke-width="2" stroke-linecap="round" fill="none"/><path d="M86 144 L86 156 L94 150 Z" fill="rgba(0,0,0,.42)"/><path d="M51 58 L69 58 L67 112 L49 112 Z" fill="#3A352D"/><path d="M62 108 L64 147" stroke="#6E6558" stroke-width="12" stroke-linecap="round" fill="none"/><path d="M57 108 L55 147" stroke="#3A352D" stroke-width="13" stroke-linecap="round" fill="none"/><path d="M58 62 L63 88 L61 107" stroke="#6E6558" stroke-width="8" stroke-linecap="round" stroke-linejoin="round" fill="none"/><path d="M57 62 L62 90 L60 108" stroke="#3A352D" stroke-width="9" stroke-linecap="round" stroke-linejoin="round" fill="none"/><circle cx="59" cy="33" r="11.5" fill="#3A352D"/><path d="M59 44 L59 52" stroke="#3A352D" stroke-width="9" stroke-linecap="round"/></symbol>
<symbol id="p6" viewBox="0 0 120 160" preserveAspectRatio="xMidYMid slice"><rect width="120" height="160" fill="url(#gw)"/><ellipse cx="60" cy="150" rx="27" ry="5.5" fill="none" stroke="rgba(0,0,0,.22)" stroke-width="1.5"/><path d="M46 149 h28 M60 149 v7" stroke="rgba(0,0,0,.3)" stroke-width="2" stroke-linecap="round" fill="none"/><path d="M54 143 L66 143 L60 136 Z" fill="rgba(0,0,0,.42)"/><path d="M41 58 L79 58 L72 112 L48 112 Z" fill="#3A352D"/><path d="M54 108 L52 147" stroke="#3A352D" stroke-width="13" stroke-linecap="round" fill="none"/><path d="M66 108 L68 147" stroke="#3A352D" stroke-width="13" stroke-linecap="round" fill="none"/><path d="M45 62 L37 90 L35 107" stroke="#3A352D" stroke-width="9" stroke-linecap="round" stroke-linejoin="round" fill="none"/><path d="M75 62 L83 90 L85 107" stroke="#3A352D" stroke-width="9" stroke-linecap="round" stroke-linejoin="round" fill="none"/><circle cx="60" cy="33" r="11.5" fill="#3A352D"/><path d="M60 44 L60 52" stroke="#3A352D" stroke-width="9" stroke-linecap="round"/></symbol>
<symbol id="p7" viewBox="0 0 120 160" preserveAspectRatio="xMidYMid slice"><rect width="120" height="160" fill="url(#gw)"/><ellipse cx="60" cy="150" rx="27" ry="5.5" fill="none" stroke="rgba(0,0,0,.22)" stroke-width="1.5"/><path d="M46 149 h28 M60 149 v7" stroke="rgba(0,0,0,.3)" stroke-width="2" stroke-linecap="round" fill="none"/><path d="M54 143 L66 143 L60 136 Z" fill="rgba(0,0,0,.42)"/><path d="M41 58 L79 58 L72 112 L48 112 Z" fill="#3A352D"/><path d="M54 108 L52 147" stroke="#3A352D" stroke-width="13" stroke-linecap="round" fill="none"/><path d="M66 108 L68 147" stroke="#3A352D" stroke-width="13" stroke-linecap="round" fill="none"/><path d="M45 62 L26 72 L34 46" stroke="#3A352D" stroke-width="9" stroke-linecap="round" stroke-linejoin="round" fill="none"/><path d="M75 62 L94 72 L86 46" stroke="#3A352D" stroke-width="9" stroke-linecap="round" stroke-linejoin="round" fill="none"/><circle cx="34" cy="44" r="5" fill="#3A352D"/><circle cx="86" cy="44" r="5" fill="#3A352D"/><circle cx="60" cy="33" r="11.5" fill="#3A352D"/><path d="M60 44 L60 52" stroke="#3A352D" stroke-width="9" stroke-linecap="round"/></symbol>
<symbol id="p8" viewBox="0 0 120 160" preserveAspectRatio="xMidYMid slice"><rect width="120" height="160" fill="url(#gw)"/><ellipse cx="60" cy="150" rx="27" ry="5.5" fill="none" stroke="rgba(0,0,0,.22)" stroke-width="1.5"/><path d="M46 149 h28 M60 149 v7" stroke="rgba(0,0,0,.3)" stroke-width="2" stroke-linecap="round" fill="none"/><path d="M54 143 L66 143 L60 136 Z" fill="rgba(0,0,0,.42)"/><path d="M41 58 L79 58 L72 112 L48 112 Z" fill="#3A352D"/><path d="M54 108 L52 147" stroke="#3A352D" stroke-width="13" stroke-linecap="round" fill="none"/><path d="M66 108 L68 147" stroke="#3A352D" stroke-width="13" stroke-linecap="round" fill="none"/><path d="M45 62 L28 82 L48 97" stroke="#3A352D" stroke-width="9" stroke-linecap="round" stroke-linejoin="round" fill="none"/><path d="M75 62 L92 82 L72 97" stroke="#3A352D" stroke-width="9" stroke-linecap="round" stroke-linejoin="round" fill="none"/><circle cx="60" cy="33" r="11.5" fill="#3A352D"/><path d="M60 44 L60 52" stroke="#3A352D" stroke-width="9" stroke-linecap="round"/></symbol>
<symbol id="p9" viewBox="0 0 120 160" preserveAspectRatio="xMidYMid slice"><rect width="120" height="160" fill="url(#gw)"/><ellipse cx="60" cy="150" rx="27" ry="5.5" fill="none" stroke="rgba(0,0,0,.22)" stroke-width="1.5"/><path d="M46 149 h28 M60 149 v7" stroke="rgba(0,0,0,.3)" stroke-width="2" stroke-linecap="round" fill="none"/><path d="M34 144 L34 156 L26 150 Z" fill="rgba(0,0,0,.42)"/><path d="M51 58 L69 58 L67 112 L49 112 Z" fill="#3A352D"/><path d="M62 108 L64 147" stroke="#6E6558" stroke-width="12" stroke-linecap="round" fill="none"/><path d="M57 108 L55 147" stroke="#3A352D" stroke-width="13" stroke-linecap="round" fill="none"/><path d="M62 62 L57 88 L59 107" stroke="#6E6558" stroke-width="8" stroke-linecap="round" stroke-linejoin="round" fill="none"/><path d="M63 62 L58 90 L60 108" stroke="#3A352D" stroke-width="9" stroke-linecap="round" stroke-linejoin="round" fill="none"/><circle cx="59" cy="33" r="11.5" fill="#3A352D"/><path d="M59 44 L59 52" stroke="#3A352D" stroke-width="9" stroke-linecap="round"/></symbol>
<symbol id="bk" viewBox="0 0 24 24"><path d="M15 5 L8 12 L15 19" fill="none" stroke="currentColor" stroke-width="2.2" stroke-linecap="round" stroke-linejoin="round"/></symbol>
<symbol id="fw" viewBox="0 0 24 24"><path d="M9 5 L16 12 L9 19" fill="none" stroke="currentColor" stroke-width="2.2" stroke-linecap="round" stroke-linejoin="round"/></symbol>
<symbol id="plus" viewBox="0 0 24 24"><path d="M12 5v14M5 12h14" stroke="currentColor" stroke-width="2.2" stroke-linecap="round"/></symbol>
<symbol id="x" viewBox="0 0 24 24"><path d="M6 6l12 12M18 6L6 18" stroke="currentColor" stroke-width="2.2" stroke-linecap="round"/></symbol>
<symbol id="undo" viewBox="0 0 24 24"><path d="M7 9h8a4.5 4.5 0 110 9H9" fill="none" stroke="currentColor" stroke-width="2" stroke-linecap="round"/><path d="M10 5.5L6.5 9l3.5 3.5" fill="none" stroke="currentColor" stroke-width="2" stroke-linecap="round" stroke-linejoin="round"/></symbol>
<symbol id="down" viewBox="0 0 24 24"><path d="M12 4v11M7.5 11L12 15.5 16.5 11M5 19.5h14" fill="none" stroke="currentColor" stroke-width="2" stroke-linecap="round" stroke-linejoin="round"/></symbol>
<symbol id="som" viewBox="0 0 24 24"><path d="M4 9.5h3.5L12 5.5v13L7.5 14.5H4z" fill="currentColor"/><path d="M15 9a4.5 4.5 0 010 6M17.8 6.5a8 8 0 010 11" fill="none" stroke="currentColor" stroke-width="1.8" stroke-linecap="round"/></symbol>
<symbol id="fita" viewBox="0 0 24 24"><path d="M3.5 7.5h17v9h-17z" fill="none" stroke="currentColor" stroke-width="1.8"/><path d="M7 7.5v3M10.5 7.5v4.5M14 7.5v3M17.5 7.5v4.5" stroke="currentColor" stroke-width="1.6" stroke-linecap="round"/></symbol>
<symbol id="bal" viewBox="0 0 24 24"><path d="M4 5.5h16v13H4z" fill="none" stroke="currentColor" stroke-width="1.8"/><path d="M8 9.5a4 4 0 018 0" fill="none" stroke="currentColor" stroke-width="1.8" stroke-linecap="round"/><path d="M12 9.5l2.5-1.8" stroke="currentColor" stroke-width="1.8" stroke-linecap="round"/></symbol>
<symbol id="lousa" viewBox="0 0 24 24"><path d="M3.5 4.5h17v12h-17z" fill="none" stroke="currentColor" stroke-width="1.8"/><path d="M8 19.5l1.6-3M16 19.5l-1.6-3" stroke="currentColor" stroke-width="1.8" stroke-linecap="round"/><path d="M6.5 8h7M6.5 11h5M6.5 13.8h9" stroke="currentColor" stroke-width="1.6" stroke-linecap="round"/></symbol>
<symbol id="run" viewBox="0 0 24 24"><circle cx="14.5" cy="4.8" r="2.1" fill="currentColor"/><path d="M13 8.2l-3.4 2.2 1.6 3.1-2.6 4.4M11.2 13.5l3.6 1.3 1 4.3M13.6 9.6l3.4 1.6 2.4-.8" fill="none" stroke="currentColor" stroke-width="1.9" stroke-linecap="round" stroke-linejoin="round"/></symbol>
<symbol id="t-corpo" viewBox="0 0 24 24"><circle cx="12" cy="5" r="2.6" fill="none" stroke="currentColor" stroke-width="1.8"/><path d="M12 8.2v6.3M7.5 10.3h9M9.6 14.5L8.4 21M14.4 14.5L15.6 21" fill="none" stroke="currentColor" stroke-width="1.8" stroke-linecap="round"/></symbol>
<symbol id="t-sem" viewBox="0 0 24 24"><path d="M4 19.5h16" stroke="currentColor" stroke-width="1.8" stroke-linecap="round"/><rect x="5" y="12" width="3.4" height="5" rx="1.2" fill="currentColor"/><rect x="10.3" y="8.5" width="3.4" height="8.5" rx="1.2" fill="currentColor"/><rect x="15.6" y="4.5" width="3.4" height="12.5" rx="1.2" fill="currentColor"/></symbol>
<symbol id="ok2" viewBox="0 0 24 24"><path d="M4.5 12.5l5 5 10-11" fill="none" stroke="currentColor" stroke-width="2.6" stroke-linecap="round" stroke-linejoin="round"/></symbol>
<symbol id="rel" viewBox="0 0 24 24"><circle cx="12" cy="12.5" r="8" fill="none" stroke="currentColor" stroke-width="1.8"/><path d="M12 8v4.5l3 2" fill="none" stroke="currentColor" stroke-width="1.8" stroke-linecap="round"/><path d="M9 2.5h6" stroke="currentColor" stroke-width="1.8" stroke-linecap="round"/></symbol>
<symbol id="pen" viewBox="0 0 24 24"><path d="M4 20l1-4.2L16.2 4.6l3.2 3.2L8.2 19 4 20z" fill="none" stroke="currentColor" stroke-width="1.8" stroke-linejoin="round"/></symbol>
<symbol id="nuv" viewBox="0 0 24 24"><path d="M7 17.5h9.5a3.5 3.5 0 00.2-7 5 5 0 00-9.6 1.3A3 3 0 007 17.5z" fill="none" stroke="currentColor" stroke-width="1.8" stroke-linejoin="round"/></symbol>

  <symbol id="sig" viewBox="0 0 18 12"><rect x="0" y="8" width="3" height="4" rx="1" fill="currentColor"/><rect x="5" y="5.5" width="3" height="6.5" rx="1" fill="currentColor" opacity=".28"/><rect x="10" y="3" width="3" height="9" rx="1" fill="currentColor" opacity=".28"/><rect x="15" y="0" width="3" height="12" rx="1" fill="currentColor" opacity=".28"/></symbol>
  <symbol id="bat" viewBox="0 0 27 12"><rect x=".75" y=".75" width="22" height="10.5" rx="3" fill="none" stroke="currentColor" stroke-width="1.2" opacity=".5"/><rect x="2.5" y="2.5" width="13" height="7" rx="1.5" fill="currentColor"/><rect x="24" y="4" width="1.8" height="4" rx=".9" fill="currentColor" opacity=".5"/></symbol>
  <symbol id="dots" viewBox="0 0 24 24"><circle cx="5" cy="12" r="2.1" fill="currentColor"/><circle cx="12" cy="12" r="2.1" fill="currentColor"/><circle cx="19" cy="12" r="2.1" fill="currentColor"/></symbol>
  <symbol id="ck" viewBox="0 0 20 20"><circle cx="10" cy="10" r="9.5" fill="currentColor"/><path d="M5.8 10.4l2.8 2.8 5.6-5.8" fill="none" style="stroke:var(--surface)" stroke-width="2.1" stroke-linecap="round" stroke-linejoin="round"/></symbol>
  <symbol id="cam" viewBox="0 0 20 20"><path d="M3 6.5h3l1.4-2h5.2l1.4 2h3v9H3z" fill="none" stroke="currentColor" stroke-width="1.6" stroke-linejoin="round"/><circle cx="10" cy="11" r="2.8" fill="none" stroke="currentColor" stroke-width="1.6"/></symbol>
  <symbol id="note" viewBox="0 0 20 20"><path d="M4 3.5h12v13H4z M7 7.5h6 M7 10.5h6 M7 13.5h4" fill="none" stroke="currentColor" stroke-width="1.6" stroke-linejoin="round" stroke-linecap="round"/></symbol>
  <symbol id="star" viewBox="0 0 20 20"><path d="M10 2.2l2.3 4.9 5.3.6-3.9 3.6 1.1 5.3L10 13.9l-4.8 2.7 1.1-5.3-3.9-3.6 5.3-.6z" fill="currentColor"/></symbol>
  <symbol id="warn" viewBox="0 0 20 20"><path d="M10 2.5l8 14H2z" fill="none" stroke="currentColor" stroke-width="1.7" stroke-linejoin="round"/><path d="M10 8v4" stroke="currentColor" stroke-width="1.8" stroke-linecap="round"/><circle cx="10" cy="14.4" r="1.05" fill="currentColor"/></symbol>
  <symbol id="gear" viewBox="0 0 24 24"><path d="M4 7h10M18 7h2M4 17h4M12 17h8" stroke="currentColor" stroke-width="1.8" stroke-linecap="round"/><circle cx="16" cy="7" r="2.2" fill="none" stroke="currentColor" stroke-width="1.8"/><circle cx="10" cy="17" r="2.2" fill="none" stroke="currentColor" stroke-width="1.8"/></symbol>
  <symbol id="t-agora" viewBox="0 0 24 24"><circle cx="12" cy="12" r="8.5" fill="none" stroke="currentColor" stroke-width="1.8"/><path d="M12 7.5V12l3 2" fill="none" stroke="currentColor" stroke-width="1.8" stroke-linecap="round"/></symbol>
  <symbol id="t-dias" viewBox="0 0 24 24"><rect x="3.5" y="5" width="17" height="15" rx="3" fill="none" stroke="currentColor" stroke-width="1.8"/><path d="M3.5 10h17M8 3v4M16 3v4" stroke="currentColor" stroke-width="1.8" stroke-linecap="round"/></symbol>
  <symbol id="t-evo" viewBox="0 0 24 24"><path d="M3.5 18l5-6 4 3 7-9" fill="none" stroke="currentColor" stroke-width="1.8" stroke-linecap="round" stroke-linejoin="round"/><path d="M3.5 20.5h17" stroke="currentColor" stroke-width="1.8" stroke-linecap="round"/></symbol>
  <symbol id="t-presc" viewBox="0 0 24 24"><rect x="5" y="4.5" width="14" height="16" rx="2.5" fill="none" stroke="currentColor" stroke-width="1.8"/><path d="M9 3.5h6v3H9z" fill="none" stroke="currentColor" stroke-width="1.6" stroke-linejoin="round"/><path d="M8.5 11h7M8.5 14.5h7M8.5 18h4" stroke="currentColor" stroke-width="1.6" stroke-linecap="round"/></symbol>

<symbol id="sig-c" viewBox="0 0 18 12"><rect x="0" y="8" width="3" height="4" rx="1" fill="currentColor"/><rect x="5" y="5.5" width="3" height="6.5" rx="1" fill="currentColor"/><rect x="10" y="3" width="3" height="9" rx="1" fill="currentColor"/><rect x="15" y="0" width="3" height="12" rx="1" fill="currentColor"/></symbol><symbol id="p1b" viewBox="0 0 120 160" preserveAspectRatio="xMidYMid slice"><rect width="120" height="160" fill="url(#gw)"/><ellipse cx="60" cy="150" rx="27" ry="5.5" fill="none" stroke="rgba(0,0,0,.22)" stroke-width="1.5"/><path d="M46 149 h28 M60 149 v7" stroke="rgba(0,0,0,.3)" stroke-width="2" stroke-linecap="round" fill="none"/><path d="M54 157 L66 157 L60 164 Z" fill="rgba(0,0,0,.42)"/><path d="M38.5 57 L81.5 57 L72.5 112 L47.5 112 Z" fill="#3A352D"/><path d="M54 108 L52 147" stroke="#3A352D" stroke-width="13" stroke-linecap="round" fill="none"/><path d="M66 108 L68 147" stroke="#3A352D" stroke-width="13" stroke-linecap="round" fill="none"/><path d="M43 61 L34 90 L32 107" stroke="#3A352D" stroke-width="9" stroke-linecap="round" stroke-linejoin="round" fill="none"/><path d="M77 61 L86 90 L88 107" stroke="#3A352D" stroke-width="9" stroke-linecap="round" stroke-linejoin="round" fill="none"/><circle cx="60" cy="33" r="11.5" fill="#3A352D"/><path d="M60 44 L60 52" stroke="#3A352D" stroke-width="9" stroke-linecap="round"/></symbol><symbol id="p8b" viewBox="0 0 120 160" preserveAspectRatio="xMidYMid slice"><rect width="120" height="160" fill="url(#gw)"/><ellipse cx="60" cy="150" rx="27" ry="5.5" fill="none" stroke="rgba(0,0,0,.22)" stroke-width="1.5"/><path d="M46 149 h28 M60 149 v7" stroke="rgba(0,0,0,.3)" stroke-width="2" stroke-linecap="round" fill="none"/><path d="M54 143 L66 143 L60 136 Z" fill="rgba(0,0,0,.42)"/><path d="M38.5 57 L81.5 57 L72.5 112 L47.5 112 Z" fill="#3A352D"/><path d="M54 108 L52 147" stroke="#3A352D" stroke-width="13" stroke-linecap="round" fill="none"/><path d="M66 108 L68 147" stroke="#3A352D" stroke-width="13" stroke-linecap="round" fill="none"/><path d="M43 61 L26 82 L47 97" stroke="#3A352D" stroke-width="9" stroke-linecap="round" stroke-linejoin="round" fill="none"/><path d="M77 61 L94 82 L73 97" stroke="#3A352D" stroke-width="9" stroke-linecap="round" stroke-linejoin="round" fill="none"/><circle cx="60" cy="33" r="11.5" fill="#3A352D"/><path d="M60 44 L60 52" stroke="#3A352D" stroke-width="9" stroke-linecap="round"/></symbol></svg>